<svg xmlns="http://www.w3.org/2000/svg" xmlns:xlink="http://www.w3.org/1999/xlink" width="16" height="16" viewBox="0 0 16 16">
  <defs>
    <clipPath id="clip-path">
      <rect id="Retângulo_2302" data-name="Retângulo 2302" width="16" height="16" transform="translate(537 647)" fill="#686868"/>
    </clipPath>
  </defs>
  <g id="emoji" transform="translate(-537 -647)" clip-path="url(#clip-path)">
    <path id="smile" d="M8,16a8,8,0,1,1,8-8,8,8,0,0,1-8,8ZM8,1.333A6.667,6.667,0,1,0,14.667,8,6.667,6.667,0,0,0,8,1.333ZM11.777,10.5a.667.667,0,0,0-.887-1A5.005,5.005,0,0,1,8,10.667,5.006,5.006,0,0,1,5.111,9.5a.667.667,0,1,0-.888.995A6.3,6.3,0,0,0,8,12a6.3,6.3,0,0,0,3.777-1.5ZM4,6.667c0,.667.6.667,1.333.667s1.333,0,1.333-.667A1.333,1.333,0,0,0,4,6.667Zm5.333,0c0,.667.6.667,1.333.667S12,7.333,12,6.667a1.333,1.333,0,0,0-2.667,0Z" transform="translate(537 647)" fill="#686868"/>
  </g>
</svg>
